<svg id="Layer_3" enable-background="new 0 0 64 64" height="512" viewBox="0 0 64 64" width="512" xmlns="http://www.w3.org/2000/svg"><path d="m15 38-8.765 2.697c-2.517.774-4.235 3.1-4.235 5.734v15.569h40v-15.569c0-2.634-1.718-4.96-4.235-5.735l-8.765-2.696" fill="#c1c8d1"/><path d="m16.5 55c11.303 0 20.813-5.469 23.64-12.903-.659-.63-1.462-1.12-2.375-1.4l-8.765-2.697h-14l-8.765 2.697c-2.517.774-4.235 3.1-4.235 5.734v5.173c4.06 2.133 9.073 3.396 14.5 3.396z" fill="#ebf7fe"/><path d="m27 39-3 5 2 2-4 3-4-3 2-2-3-5" fill="#db9b7c"/><path d="m13.856 38.352 2.144 9.648 4-4-3.6-6h-1.4z" fill="#c1c8d1"/><path d="m30.144 38.352-1.144-.352h-1.4l-3.6 6 4 4z" fill="#c1c8d1"/><path d="m9 19c-2.209 0-4 1.791-4 4 0 2.209 1.791 4 4 4" fill="#db9b7c"/><path d="m35 19c2.209 0 4 1.791 4 4 0 2.209-1.791 4-4 4" fill="#db9b7c"/><path d="m35 4v23c0 7.18-5.82 13-13 13-7.18 0-13-5.82-13-13v-25h8.929c4.527 0 8.87 1.799 12.071 5z" fill="#efbe9a"/><path d="m30 7c-3.201-3.201-7.544-5-12.071-5h-8.929v21c2.209 0 4-1.791 4-4v-1.93c0-1.696 1.375-3.07 3.07-3.07.606 0 1.199.179 1.703.516l.562.375c1.086.723 2.361 1.109 3.665 1.109s2.579-.386 3.664-1.109l.562-.375c.505-.337 1.097-.516 1.704-.516 1.696 0 3.07 1.375 3.07 3.07v1.93c0 2.209 1.791 4 4 4v-19z" fill="#976947"/><path d="m21 48-2 10 3 4 3-4-2-10" fill="#8892a0"/><circle cx="47" cy="47" fill="#c7e2fc" r="15"/><path d="m58 39.5c0-1.021-.106-2.016-.283-2.986-2.723-2.782-6.516-4.514-10.717-4.514-8.284 0-15 6.716-15 15 0 2.56.644 4.968 1.775 7.076 2.305 1.224 4.932 1.924 7.725 1.924 9.113 0 16.5-7.387 16.5-16.5z" fill="#ebf7fe"/><path d="m46 39h4v6h-4z" fill="#e47c6e"/><path d="m38 47h4v6h-4z" fill="#78b75b"/><path d="m54 43h4v6h-4z" fill="#78b75b"/><path d="m22 37c-3.86 0-7-3.141-7-7h2c0 2.757 2.243 5 5 5s5-2.243 5-5h2c0 3.859-3.14 7-7 7z" fill="#db9b7c"/><g fill="#8892a0"><path d="m19 22h6v2h-6z"/><path d="m47 36h2v3h-2z"/><path d="m47 45h2v3h-2z"/><path d="m39 44h2v3h-2z"/><path d="m39 53h2v3h-2z"/><path d="m55 40h2v3h-2z"/><path d="m55 49h2v3h-2z"/></g><circle cx="28" cy="23" fill="#c7e2fc" r="4"/><circle cx="16" cy="23" fill="#c7e2fc" r="4"/><path d="m16.5 25c-.827 0-1.5-.673-1.5-1.5s.673-1.5 1.5-1.5 1.5.673 1.5 1.5-.673 1.5-1.5 1.5z" fill="#db9b7c"/><path d="m27.5 25c-.827 0-1.5-.673-1.5-1.5s.673-1.5 1.5-1.5 1.5.673 1.5 1.5-.673 1.5-1.5 1.5z" fill="#db9b7c"/></svg>